<svg xmlns="http://www.w3.org/2000/svg" viewBox="0 0 160 100" width="160" height="100"
     role="img" aria-label="Hauptsatz: Integral als Differenz der Stammfunktion">
  <style>
    .flaeche { fill: #B61E33; fill-opacity: .2; }
    .kurve   { fill: none; stroke: #B61E33; stroke-width: 2.4; stroke-linecap: round; stroke-linejoin: round; }
    .zweite  { fill: none; stroke: #6b7280; stroke-width: 2.2; stroke-linecap: round; }
    .achse   { fill: none; stroke: #9097a0; stroke-width: 1.2; }
    .hilfs   { fill: none; stroke: #9097a0; stroke-width: 1; stroke-dasharray: 3 3; }
    .marke   { fill: #B61E33; }
    .text    { fill: #646a72; font: 600 11px 'Source Sans 3', system-ui, sans-serif; }
    @media (prefers-color-scheme: dark) {
      .flaeche { fill: #E8677D; fill-opacity: .22; }
      .kurve   { stroke: #E8677D; }
      .zweite  { stroke: #9aa1a9; }
      .achse   { stroke: #6b7280; }
      .hilfs   { stroke: #6b7280; }
      .marke   { fill: #E8677D; }
      .text    { fill: #9aa1a9; }
    }
  </style>
  <path class="achse" d="M14 12 L14 84 L150 84"/>
  <path class="achse" d="M150 84 l-4 -3 M150 84 l-4 3"/>
  <path class="flaeche" d="M52.0 71.6 L53.8 71.2 L55.6 70.8 L57.4 70.4 L59.2 69.9 L61.0 69.5 L62.8 69.0 L64.6 68.5 L66.4 68.0 L68.2 67.4 L70.0 66.9 L71.8 66.3 L73.6 65.7 L75.4 65.1 L77.2 64.5 L79.0 63.8 L80.8 63.2 L82.6 62.5 L84.4 61.8 L86.2 61.1 L88.0 60.3 L89.8 59.6 L91.6 58.8 L93.4 58.0 L95.2 57.2 L97.0 56.3 L98.8 55.5 L100.6 54.6 L102.4 53.7 L104.2 52.8 L106.0 51.9 L107.8 50.9 L109.6 50.0 L111.4 49.0 L113.2 48.0 L115.0 47.0 L116.8 45.9 L118.6 44.9 L120.4 43.8 L122.2 42.7 L124.0 41.6 L124.0 84 L52.0 84 Z"/>
  <path class="hilfs" d="M52.0 84 L52.0 71.6 M124.0 84 L124.0 41.6"/>
  <path class="kurve" d="M22.0 75.2 L24.5 75.1 L26.9 75.0 L29.4 74.8 L31.8 74.6 L34.3 74.4 L36.8 74.1 L39.2 73.8 L41.7 73.4 L44.1 73.0 L46.6 72.6 L49.1 72.2 L51.5 71.7 L54.0 71.1 L56.4 70.6 L58.9 70.0 L61.4 69.4 L63.8 68.7 L66.3 68.0 L68.7 67.3 L71.2 66.5 L73.7 65.7 L76.1 64.9 L78.6 64.0 L81.0 63.1 L83.5 62.1 L86.0 61.2 L88.4 60.1 L90.9 59.1 L93.3 58.0 L95.8 56.9 L98.3 55.7 L100.7 54.6 L103.2 53.3 L105.6 52.1 L108.1 50.8 L110.6 49.4 L113.0 48.1 L115.5 46.7 L117.9 45.3 L120.4 43.8 L122.9 42.3 L125.3 40.7 L127.8 39.2 L130.2 37.6 L132.7 35.9 L135.2 34.2 L137.6 32.5 L140.1 30.8 L142.5 29.0 L145.0 27.2"/>
  <text class="text" x="49.0" y="96">a</text>
  <text class="text" x="121.0" y="96">b</text>
</svg>
