<svg xmlns="http://www.w3.org/2000/svg" viewBox="0 0 160 100" width="160" height="100"
     role="img" aria-label="Ober- und Untersumme unter einer Parabel">
  <style>
    .flaeche { fill: #B61E33; fill-opacity: .2; }
    .kurve   { fill: none; stroke: #B61E33; stroke-width: 2.4; stroke-linecap: round; stroke-linejoin: round; }
    .zweite  { fill: none; stroke: #6b7280; stroke-width: 2.2; stroke-linecap: round; }
    .achse   { fill: none; stroke: #9097a0; stroke-width: 1.2; }
    .hilfs   { fill: none; stroke: #9097a0; stroke-width: 1; stroke-dasharray: 3 3; }
    .marke   { fill: #B61E33; }
    .text    { fill: #646a72; font: 600 11px 'Source Sans 3', system-ui, sans-serif; }
    @media (prefers-color-scheme: dark) {
      .flaeche { fill: #E8677D; fill-opacity: .22; }
      .kurve   { stroke: #E8677D; }
      .zweite  { stroke: #9aa1a9; }
      .achse   { stroke: #6b7280; }
      .hilfs   { stroke: #6b7280; }
      .marke   { fill: #E8677D; }
      .text    { fill: #9aa1a9; }
    }
  </style>
  <rect class="flaeche" x="16.0" y="75.4" width="31" height="8.6"/>
  <rect x="16.0" y="78.9" width="31" height="5.1" fill="#B61E33" fill-opacity=".3"/>
  <rect class="flaeche" x="47.0" y="64.8" width="31" height="19.2"/>
  <rect x="47.0" y="75.4" width="31" height="8.6" fill="#B61E33" fill-opacity=".3"/>
  <rect class="flaeche" x="78.0" y="47.2" width="31" height="36.8"/>
  <rect x="78.0" y="64.8" width="31" height="19.2" fill="#B61E33" fill-opacity=".3"/>
  <rect class="flaeche" x="109.0" y="22.6" width="31" height="61.4"/>
  <rect x="109.0" y="47.2" width="31" height="36.8" fill="#B61E33" fill-opacity=".3"/>
  <path class="achse" d="M14 12 L14 84 L150 84"/>
  <path class="achse" d="M150 84 l-4 -3 M150 84 l-4 3"/>
  <path class="kurve" d="M16.0 78.9 L18.6 78.9 L21.2 78.8 L23.8 78.7 L26.4 78.5 L29.0 78.3 L31.6 78.0 L34.2 77.7 L36.8 77.3 L39.4 76.9 L42.0 76.4 L44.6 75.9 L47.2 75.3 L49.9 74.7 L52.5 74.0 L55.1 73.3 L57.7 72.5 L60.3 71.7 L62.9 70.8 L65.5 69.9 L68.1 68.9 L70.7 67.9 L73.3 66.9 L75.9 65.7 L78.5 64.6 L81.1 63.4 L83.7 62.1 L86.3 60.8 L88.9 59.4 L91.5 58.0 L94.1 56.5 L96.7 55.0 L99.3 53.4 L101.9 51.8 L104.5 50.2 L107.1 48.5 L109.7 46.7 L112.3 44.9 L115.0 43.0 L117.6 41.1 L120.2 39.1 L122.8 37.1 L125.4 35.1 L128.0 33.0 L130.6 30.8 L133.2 28.6 L135.8 26.3 L138.4 24.0 L141.0 21.7 L143.6 19.2 L146.2 16.8"/>
</svg>
